<?xml version="1.0" encoding="UTF-8"?>
<svg xmlns="http://www.w3.org/2000/svg" xmlns:xlink="http://www.w3.org/1999/xlink" viewBox="0 0 500 500" width="500px" height="500px">
<g id="surface114947967">
<path style=" stroke:none;fill-rule:nonzero;fill:rgb(100%,100%,100%);fill-opacity:1;" d="M 250 31.953125 C 128.5 31.953125 30 130.453125 30 251.953125 C 30 362.253906 111.25 453.324219 217.121094 469.234375 L 217.121094 310.261719 L 162.691406 310.261719 L 162.691406 252.433594 L 217.121094 252.433594 L 217.121094 213.953125 C 217.121094 150.242188 248.160156 122.273438 301.109375 122.273438 C 326.46875 122.273438 339.878906 124.152344 346.230469 125.011719 L 346.230469 175.492188 L 310.109375 175.492188 C 287.628906 175.492188 279.78125 196.804688 279.78125 220.824219 L 279.78125 252.433594 L 345.660156 252.433594 L 336.71875 310.261719 L 279.78125 310.261719 L 279.78125 469.703125 C 387.160156 455.132812 470 363.324219 470 251.953125 C 470 130.453125 371.5 31.953125 250 31.953125 Z M 250 31.953125 "/>
</g>
</svg>
