<?xml version="1.0" encoding="UTF-8"?>
<svg xmlns="http://www.w3.org/2000/svg" xmlns:xlink="http://www.w3.org/1999/xlink" viewBox="0 0 480 480" width="480px" height="480px">
<g id="surface114952822">
<path style=" stroke:none;fill-rule:nonzero;fill:rgb(100%,100%,100%);fill-opacity:1;" d="M 448 112.867188 C 432.6875 119.667969 416.238281 124.242188 398.976562 126.308594 C 416.609375 115.746094 430.128906 99.027344 436.496094 79.089844 C 420.015625 88.867188 401.742188 95.972656 382.289062 99.8125 C 366.71875 83.21875 344.542969 72.851562 320 72.851562 C 272.863281 72.851562 234.65625 111.074219 234.65625 158.195312 C 234.65625 164.882812 235.425781 171.410156 236.863281 177.636719 C 165.9375 174.082031 103.054688 140.097656 60.945312 88.449219 C 53.617188 101.058594 49.40625 115.714844 49.40625 131.378906 C 49.40625 160.980469 64.464844 187.105469 87.359375 202.402344 C 73.375 201.953125 60.207031 198.113281 48.703125 191.730469 C 48.703125 192.097656 48.703125 192.433594 48.703125 192.804688 C 48.703125 234.164062 78.113281 268.660156 117.167969 276.484375 C 110.015625 278.433594 102.464844 279.476562 94.671875 279.476562 C 89.183594 279.476562 83.824219 278.929688 78.625 277.953125 C 89.488281 311.859375 121.007812 336.546875 158.351562 337.234375 C 129.152344 360.128906 92.351562 373.777344 52.351562 373.777344 C 45.472656 373.777344 38.671875 373.378906 31.984375 372.578125 C 69.761719 396.785156 114.609375 410.914062 162.816406 410.914062 C 319.808594 410.914062 405.632812 280.867188 405.632812 168.082031 C 405.632812 164.386719 405.550781 160.707031 405.390625 157.042969 C 422.078125 144.996094 436.558594 129.972656 448 112.867188 Z M 448 112.867188 "/>
</g>
</svg>
