<?xml version="1.0" encoding="UTF-8"?>
<svg xmlns="http://www.w3.org/2000/svg" xmlns:xlink="http://www.w3.org/1999/xlink" viewBox="0 0 500 500" width="500px" height="500px">
<g id="surface115161877">
<path style=" stroke:none;fill-rule:nonzero;fill:rgb(100%,100%,100%);fill-opacity:1;" d="M 160 31.953125 C 88.546875 31.953125 30 90.5 30 161.953125 L 30 341.953125 C 30 413.40625 88.546875 471.953125 160 471.953125 L 340 471.953125 C 411.453125 471.953125 470 413.40625 470 341.953125 L 470 161.953125 C 470 90.5 411.453125 31.953125 340 31.953125 Z M 160 51.953125 L 340 51.953125 C 400.546875 51.953125 450 101.40625 450 161.953125 L 450 341.953125 C 450 402.5 400.546875 451.953125 340 451.953125 L 160 451.953125 C 99.453125 451.953125 50 402.5 50 341.953125 L 50 161.953125 C 50 101.40625 99.453125 51.953125 160 51.953125 Z M 370 111.953125 C 359 111.953125 350 120.953125 350 131.953125 C 350 142.953125 359 151.953125 370 151.953125 C 381 151.953125 390 142.953125 390 131.953125 C 390 120.953125 381 111.953125 370 111.953125 Z M 250 141.953125 C 189.546875 141.953125 140 191.5 140 251.953125 C 140 312.40625 189.546875 361.953125 250 361.953125 C 310.453125 361.953125 360 312.40625 360 251.953125 C 360 191.5 310.453125 141.953125 250 141.953125 Z M 250 161.953125 C 299.546875 161.953125 340 202.40625 340 251.953125 C 340 301.5 299.546875 341.953125 250 341.953125 C 200.453125 341.953125 160 301.5 160 251.953125 C 160 202.40625 200.453125 161.953125 250 161.953125 Z M 250 161.953125 "/>
</g>
</svg>
