<?xml version="1.0" encoding="UTF-8"?>
<svg xmlns="http://www.w3.org/2000/svg" xmlns:xlink="http://www.w3.org/1999/xlink" viewBox="0 0 480 480" width="480px" height="480px">
<g id="surface114974492">
<path style=" stroke:none;fill-rule:nonzero;fill:rgb(100%,100%,100%);fill-opacity:1;" d="M 240 49.875 C 133.96875 49.875 48 135.84375 48 241.875 C 48 331.84375 109.953125 407.121094 193.472656 427.953125 C 192.574219 425.363281 192 422.355469 192 418.625 L 192 385.8125 C 184.207031 385.8125 171.152344 385.8125 167.871094 385.8125 C 154.734375 385.8125 143.054688 380.164062 137.390625 369.667969 C 131.105469 358.003906 130.015625 340.164062 114.433594 329.25 C 109.808594 325.617188 113.328125 321.476562 118.65625 322.035156 C 128.496094 324.820312 136.65625 331.570312 144.335938 341.585938 C 151.984375 351.617188 155.582031 353.890625 169.871094 353.890625 C 176.800781 353.890625 187.167969 353.492188 196.929688 351.953125 C 202.175781 338.625 211.246094 326.355469 222.335938 320.5625 C 158.398438 313.988281 127.886719 282.179688 127.886719 238.996094 C 127.886719 220.402344 135.808594 202.417969 149.265625 187.265625 C 144.847656 172.226562 139.296875 141.554688 150.960938 129.875 C 179.726562 129.875 197.121094 148.53125 201.296875 153.570312 C 215.632812 148.660156 231.375 145.875 247.917969 145.875 C 264.496094 145.875 280.304688 148.660156 294.671875 153.601562 C 298.800781 148.59375 316.207031 129.875 345.039062 129.875 C 356.75 141.570312 351.136719 172.371094 346.671875 187.378906 C 360.046875 202.5 367.917969 220.433594 367.917969 238.996094 C 367.917969 282.148438 337.457031 313.9375 273.617188 320.546875 C 291.183594 329.714844 304 355.476562 304 374.882812 L 304 418.625 C 304 420.289062 303.632812 421.492188 303.441406 422.914062 C 378.253906 396.691406 432 325.652344 432 241.875 C 432 135.84375 346.03125 49.875 240 49.875 Z M 240 49.875 "/>
</g>
</svg>
